# AST/ASF file generated using VICON BodyLanguage
# -----------------------------------------------
:version 1.10
:name VICON
:units
  mass 1.0
  length 0.45
  angle deg
:documentation
   .ast/.asf automatically generated from VICON data using
   VICON BodyBuilder and BodyLanguage model FoxedUp or BRILLIANT.MOD
:root
   order TX TY TZ RX RY RZ
   axis XYZ
   position 0 0 0  
   orientation 0 0 0 
:bonedata
  begin
     id 1 
     name lhipjoint
     direction 0.621563 -0.714088 0.322083 
     length 2.21591 
     axis 0 0 0  XYZ
  end
  begin
     id 2 
     name lfemur
     direction 0.34202 -0.939693 0  
     length 6.84027  
     axis 0 0 20  XYZ
    dof rx ry rz
    limits (-160.0 20.0)
           (-70.0 70.0)
           (-60.0 70.0)
  end
  begin
     id 3 
     name ltibia
     direction 0.34202 -0.939693 0   
     length 6.74005   
     axis 0 0 20   XYZ
    dof rx
    limits (-10.0 170.0)
  end
  begin
     id 4 
     name lfoot
     direction 0.0348332 -0.0960526 0.994767   
     length 1.54672   
     axis -90 7.62852e-016 20   XYZ
    dof rx rz
    limits (-45.0 90.0)
           (-70.0 20.0)
  end
  begin
     id 5 
     name ltoes
     direction 1.53538e-011 -4.22089e-011 1   
     length 0.792077   
     axis -90 7.62852e-016 20   XYZ
    dof rx
    limits (-90.0 20.0)
  end
  begin
     id 6 
     name rhipjoint
     direction -0.648389 -0.693984 0.313015   
     length 2.2801  
     axis 0 0 0  XYZ 
  end
  begin
     id 7 
     name rfemur
     direction -0.34202 -0.939693 0   
     length 6.62341   
     axis 0 0 -20   XYZ
    dof rx ry rz
    limits (-160.0 20.0)
           (-70.0 70.0)
           (-70.0 60.0)
  end
  begin
     id 8 
     name rtibia
     direction -0.34202 -0.939693 0   
     length 6.63811   
     axis 0 0 -20   XYZ
    dof rx
    limits (-10.0 170.0)
 end
 begin
     id 9 
     name rfoot
     direction -0.0578404 -0.158915 0.985596   
     length 1.64992  
     axis -90 -7.62852e-016 -20   XYZ
    dof rx rz
    limits (-45.0 90.0)
           (-20.0 70.0)
  end
  begin
     id 10 
     name rtoes
     direction -1.53571e-011 -4.21911e-011 1   
     length 0.839909   
     axis -90 -7.62852e-016 -20   XYZ
    dof rx
    limits (-90.0 20.0)
  end
  begin
     id 11 
     name lowerback
     direction 0.000554472 0.999997 -0.00226605   
     length 1.81878   
     axis 0 0 0   XYZ
    dof rx ry rz
    limits (-20.0 45.0)
           (-30.0 30.0)
           (-30.0 30.0)
  end
  begin
     id 12 
     name upperback
     direction 0.00177008 0.999761 -0.021771   
     length 1.81977   
     axis 0 0 0   XYZ
    dof rx ry rz
    limits (-20.0 45.0)
           (-30.0 30.0)
           (-30.0 30.0)
  end
  begin
     id 13 
     name thorax
     direction 0.00134147 0.999799 -0.0200243   
     length 1.81422   
     axis 0 0 0   XYZ
    dof rx ry rz
    limits (-20.0 45.0)
           (-30.0 30.0)
           (-30.0 30.0)
  end
  begin
     id 14 
     name lowerneck
     direction -0.0819714 0.987506 0.134583   
     length 1.68295   
     axis 0 0 0   XYZ
    dof rx ry rz
    limits (-20.0 45.0)
           (-30.0 30.0)
           (-30.0 30.0)
  end
  begin
     id 15 
     name upperneck
     direction 0.0867129 0.969666 -0.228538   
     length 1.71188   
     axis 0 0 0   XYZ
    dof rx ry rz
    limits (-20.0 45.0)
           (-30.0 30.0)
           (-30.0 30.0)
  end
  begin
     id 16
     name head
     direction 0.023699 0.995021 -0.0968101  
     length 1.73365  
     axis 0 0 0   XYZ
    dof rx ry rz
    limits (-20.0 45.0)
           (-30.0 30.0)
           (-30.0 30.0)
  end
  begin
     id 17 
     name lclavicle
     direction 0.912847 0.398248 0.090054  
     length 3.56518  
     axis 0 0 0   XYZ
    dof ry rz
    limits (-20.0 10.0)
           (0.0 20.0)
  end
  begin
     id 18 
     name lhumerus
     direction 1 -4.48961e-011 -4.05442e-028   
     length 4.05444   
     axis 180 -30 -90   XYZ
    dof rx ry rz
    limits (-60.0 90.0)
           (-90.0 90.0)
           (-90.0 90.0)
  end
  begin
     id 19
     name lradius
     direction 1 -4.4897e-011 1.54979e-027   
     length 3.21205   
     axis 180 -30 -90   XYZ
    dof rx
    limits (-10.0 170.0)
  end
  begin
     id 20
     name lwrist
     direction 1 -4.48979e-011 1.55564e-027   
     length 1.60602   
     axis -1.61768e-015 90 90   XYZ
    dof ry
    limits (-180.0 0.0)
 end
  begin
     id 21 
     name lhand
     direction 1 -4.48877e-011 3.11128e-027   
     length 0.707407   
     axis -1.98526e-015 90 90   XYZ
    dof rx rz
    limits (-90.0 90.0)
           (-45.0 45.0)
  end
  begin
     id 22 
     name lfingers
     direction 1 -4.49016e-011 6.22255e-027   
     length 0.57033   
     axis -3.97052e-015 90 90   XYZ
    dof rx
    limits (0.0 90.0)
  end
  begin
     id 23
     name lthumb
     direction 0.707107 -6.35011e-011 0.707107   
     length 0.818883   
     axis -90 45 2.85299e-015   XYZ
    dof rx rz
    limits (-45.0 45.0)
           (-45.0 45.0)
  end
  begin
     id 24 
     name rclavicle
     direction -0.930415 0.353791 0.0957082   
     length 3.54688  
     axis 0 0 0   XYZ 
    dof ry rz
    limits (-10.0 20.0)
           (-20.0 0.0)
  end
  begin
     id 25 
     name rhumerus
     direction -1 -4.48952e-011 -8.4136e-018  
     length 3.74048   
     axis 180 30 90   XYZ
    dof rx ry rz
    limits (-90.0 60.0)
           (-90.0 90.0)
           (-90.0 90.0)
  end
  begin
     id 26 
     name rradius
     direction -1 -4.48964e-011 1.66692e-027   
     length 3.1603   
     axis 180 30 90   XYZ
    dof rx
    limits (-10.0 170.0)
  end
  begin
     id 27 
     name rwrist
     direction -1 -4.49008e-011 1.55564e-027   
     length 1.58015   
     axis -1.61768e-015 -90 -90   XYZ
    dof ry
    limits (-180.0 0.0)
  end
  begin
     id 28
     name rhand
     direction -1 -4.48922e-011 3.11128e-027   
     length 0.717028   
     axis -1.98526e-015 -90 -90   XYZ
    dof rx rz
    limits (-90.0 90.0)
           (-45.0 45.0)
  end
  begin
     id 29
     name rfingers
     direction -1 -4.49002e-011 6.22255e-027   
     length 0.578086   
     axis -3.97052e-015 -90 -90   XYZ
    dof rx
    limits (0.0 90.0)
  end
  begin
     id 30
     name rthumb
     direction -0.707107 -6.34899e-011 0.707107   
     length 0.83002   
     axis -90 -45 -2.85299e-015   XYZ
    dof rx rz
    limits (-45.0 45.0)
           (-45.0 45.0)
  end
:hierarchy
  begin
    root lhipjoint rhipjoint lowerback
    lhipjoint lfemur
    lfemur ltibia
    ltibia lfoot
    lfoot ltoes
    rhipjoint rfemur
    rfemur rtibia
    rtibia rfoot
    rfoot rtoes
    lowerback upperback
    upperback thorax
    thorax lowerneck lclavicle rclavicle
    lowerneck upperneck
    upperneck head
    lclavicle lhumerus
    lhumerus lradius
    lradius lwrist
    lwrist lhand lthumb
    lhand lfingers
    rclavicle rhumerus
    rhumerus rradius
    rradius rwrist
    rwrist rhand rthumb
    rhand rfingers
  end

#!OML:ASF G:\acrobat\cartwheel_test\acrobat_wednesday\Session 1\acrobatwednesday.ASF
:FULLY-SPECIFIED
:DEGREES
33
root 18.7443 16.4468 0.244976 70.1189 86.32 61.6634
lowerback -8.07922 -0.733007 -2.05002
upperback 0.0609743 -0.752145 -0.388304
thorax 4.61873 -0.409413 0.660134
lowerneck -12.6299 -16.364 -15.7799
upperneck 18.3417 -21.9611 11.777
head 11.0798 -10.1165 3.19044
rclavicle -1.51573e-015 -8.15017e-015
rhumerus -34.4879 -23.2494 -73.4401
rradius 23.2412
rwrist 38.0998
rhand -20.0736 7.62691
rfingers 7.12502
rthumb 6.26878 -22.2603
lclavicle -1.51573e-015 -8.15017e-015
lhumerus -26.7083 13.3627 77.3604
lradius 17.6485
lwrist 10.5802
lhand -21.318 -14.341
lfingers 7.12502
lthumb 5.06734 15.5784
rfemur 2.46647 17.6628 20.3976
rtibia -2.18044
rfoot -31.0441 18.4162
rtoes 7.04019
lfemur -2.13896 -4.74613 -25.1463
ltibia 3.5876
lfoot 15.8266 -9.36565
ltoes -33.8694
34
root 18.7432 16.4465 0.244782 69.7813 86.339 61.3691
lowerback -8.04383 -0.747485 -2.02221
upperback 0.0726319 -0.77618 -0.367495
thorax 4.61151 -0.421101 0.663524
lowerneck -12.6568 -16.3634 -15.7702
upperneck 18.4061 -21.9526 11.725
head 11.0989 -10.1141 3.17056
rclavicle -3.08116e-015 0
rhumerus -34.529 -23.1926 -73.3871
rradius 23.1754
rwrist 38.0557
rhand -20.2638 7.68848
rfingers 7.12502
rthumb 6.08515 -22.2041
lclavicle -3.08116e-015 0
lhumerus -26.7212 13.3015 77.4397
lradius 17.6275
lwrist 10.6459
lhand -21.4194 -14.1849
lfingers 7.12502
lthumb 4.96943 15.7368
rfemur 2.64495 17.9557 20.5192
rtibia -2.35038
rfoot -31.2591 18.6776
rtoes 6.36088
lfemur -2.0905 -4.76875 -25.1183
ltibia 3.57372
lfoot 15.8608 -9.36446
ltoes -33.958
35
root 18.7417 16.447 0.244117 69.5976 86.2792 61.2242
lowerback -7.98332 -0.744665 -2.06092
upperback 0.0742964 -0.769483 -0.386352
thorax 4.5793 -0.418236 0.667191
lowerneck -12.7641 -16.3862 -15.7194
upperneck 18.5728 -21.9788 11.6381
head 11.1659 -10.121 3.11884
rclavicle 1.41634e-015 -8.74653e-015
rhumerus -34.6126 -23.2217 -73.3306
rradius 23.1062
rwrist 37.992
rhand -20.7167 7.95727
rfingers 7.12502
rthumb 5.64787 -21.9475
lclavicle 1.41634e-015 -8.74653e-015
lhumerus -26.7409 13.2203 77.4799
lradius 17.6113
lwrist 10.638
lhand -21.4926 -14.0551
lfingers 7.12502
lthumb 4.89871 15.8682
rfemur 2.84369 18.3169 20.5597
rtibia -2.5577
rfoot -31.4679 19.1051
rtoes 5.44775
lfemur -2.06493 -4.72315 -25.1805
ltibia 3.59263
lfoot 15.8801 -9.34812
ltoes -34.0717
36
root 18.7393 16.4474 0.243261 68.894 86.2508 60.5162
lowerback -7.94316 -0.731435 -2.05248
upperback 0.0548794 -0.753889 -0.386325
thorax 4.53592 -0.409823 0.664948
lowerneck -12.8533 -16.3883 -15.7246
upperneck 18.7052 -21.983 11.6342
head 11.2322 -10.1147 3.10881
rclavicle 3.67752e-015 5.1684e-015
rhumerus -34.7037 -23.4822 -73.153
rradius 22.9868
rwrist 38.1309
rhand -20.9783 8.42814
rfingers 7.12502
rthumb 5.39527 -21.4832
lclavicle 3.67752e-015 5.1684e-015
lhumerus -26.7854 13.0776 77.5404
lradius 17.599
lwrist 10.6592
lhand -21.5074 -14.089
lfingers 7.12502
lthumb 4.88442 15.8347
rfemur 2.89742 18.5069 20.5882
rtibia -2.62727
rfoot -31.5499 19.3148
rtoes 4.91086
lfemur -2.09722 -4.64367 -25.1815
ltibia 3.62705
lfoot 15.9028 -9.30257
ltoes -33.9878
37
root 18.7372 16.4489 0.24185 68.0829 86.28 59.6898
lowerback -7.91377 -0.714569 -1.96044
upperback 0.0279386 -0.741454 -0.377213
thorax 4.48982 -0.401173 0.624712
lowerneck -12.8998 -16.3783 -15.7479
upperneck 18.8085 -21.9718 11.6432
head 11.2819 -10.1045 3.11243
rclavicle -8.69683e-015 -8.54774e-015
rhumerus -34.8216 -23.5602 -73.0448
rradius 22.9844
rwrist 38.1654
rhand -20.9289 8.43277
rfingers 7.12502
rthumb 5.44297 -21.4773
lclavicle -8.69683e-015 -8.54774e-015
lhumerus -26.8402 12.8072 77.6426
lradius 17.6405
lwrist 10.777
lhand -21.5081 -14.0759
lfingers 7.12502
lthumb 4.88377 15.8478
rfemur 2.85616 18.5033 20.6297
rtibia -2.59722
rfoot -31.5077 19.3173
rtoes 4.82373
lfemur -2.12597 -4.59795 -25.1217
ltibia 3.62507
lfoot 15.8918 -9.28313
ltoes -34.0288
38
root 18.735 16.4502 0.239796 67.9915 86.2373 59.5942
lowerback -7.87618 -0.701837 -1.93284
upperback -0.00325937 -0.726616 -0.407685
thorax 4.43503 -0.392125 0.580019
lowerneck -12.8704 -16.3588 -15.7665
upperneck 18.8667 -21.9547 11.6599
head 11.3005 -10.0957 3.12576
rclavicle -6.01324e-015 -1.21259e-014
rhumerus -34.9777 -23.4235 -73.0519
rradius 23.1104
rwrist 38.0332
rhand -20.8306 8.05112
rfingers 7.12502
rthumb 5.53791 -21.8565
lclavicle -6.01324e-015 -1.21259e-014
lhumerus -26.8959 12.4572 77.7497
lradius 17.7004
lwrist 10.903
lhand -21.5259 -14.0029
lfingers 7.12502
lthumb 4.86658 15.9212
rfemur 2.80329 18.3838 20.5489
rtibia -2.56136
rfoot -31.2966 19.3758
rtoes 4.89739
lfemur -2.13967 -4.62539 -25.1807
ltibia 3.61149
lfoot 15.8959 -9.2977
ltoes -34.241
39
root 18.7325 16.4508 0.237766 68.1121 86.1665 59.7118
lowerback -7.85279 -0.693172 -1.95488
upperback -0.0252128 -0.712 -0.441531
thorax 4.39852 -0.38442 0.559451
lowerneck -12.7969 -16.333 -15.7625
upperneck 18.8306 -21.9286 11.6774
head 11.2716 -10.0867 3.14302
rclavicle 5.93869e-015 5.56597e-015
rhumerus -35.0651 -23.4822 -72.9849
rradius 23.0972
rwrist 38.055
rhand -20.7749 7.90263
rfingers 7.12502
rthumb 5.59172 -22.0036
lclavicle 5.93869e-015 5.56597e-015
lhumerus -26.8961 12.2793 77.8051
lradius 17.6643
lwrist 10.8752
lhand -21.3575 -14.0004
lfingers 7.12502
lthumb 5.02919 15.9199
rfemur 2.75153 18.2217 20.4274
rtibia -2.52626
rfoot -30.9826 19.495
rtoes 5.09548
lfemur -2.14445 -4.68424 -25.282
ltibia 3.59666
lfoot 15.9641 -9.32886
ltoes -34.3217
40
root 18.7305 16.4517 0.23633 67.9728 86.1815 59.596
lowerback -7.8089 -0.693931 -1.92161
upperback -0.0279809 -0.717776 -0.432626
thorax 4.37077 -0.386531 0.549826
lowerneck -12.8542 -16.3076 -15.6799
upperneck 18.8645 -21.8818 11.5846
head 11.2647 -10.0664 3.10672
rclavicle -5.8393e-015 -2.98177e-015
rhumerus -35.1141 -23.4353 -72.9386
rradius 23.0939
rwrist 37.9982
rhand -20.6755 7.98153
rfingers 7.12502
rthumb 5.68762 -21.9221
lclavicle -5.8393e-015 -2.98177e-015
lhumerus -26.8898 12.1326 77.8752
lradius 17.6458
lwrist 10.8688
lhand -21.1776 -13.8743
lfingers 7.12502
lthumb 5.20291 16.0419
rfemur 2.75622 18.1358 20.4372
rtibia -2.51763
rfoot -30.8162 19.5713
rtoes 5.42412
lfemur -2.11023 -4.70519 -25.2698
ltibia 3.5645
lfoot 16.0104 -9.33269
ltoes -34.4042
41
root 18.7305 16.4519 0.235652 67.7865 86.1842 59.4348
lowerback -7.78297 -0.695501 -1.91128
upperback -0.0231994 -0.722111 -0.421083
thorax 4.36128 -0.388635 0.555734
lowerneck -12.9683 -16.2865 -15.5989
upperneck 18.9527 -21.8393 11.4904
head 11.2893 -10.0435 3.06421
rclavicle 5.14355e-015 1.37161e-014
rhumerus -35.1776 -23.2464 -72.9403
rradius 23.1772
rwrist 37.8666
rhand -20.5505 8.01272
rfingers 7.12502
rthumb 5.80833 -21.8877
lclavicle 5.14355e-015 1.37161e-014
lhumerus -26.9055 11.9396 77.9644
lradius 17.6781
lwrist 10.8726
lhand -21.2019 -13.7816
lfingers 7.12502
lthumb 5.17941 16.1351
rfemur 2.7862 18.1258 20.4494
rtibia -2.53155
rfoot -30.8163 19.5659
rtoes 5.60681
lfemur -2.06805 -4.71016 -25.2663
ltibia 3.53648
lfoot 16.0443 -9.2833
ltoes -34.5401
